<svg width="204" height="40" viewBox="0 0 204 40" fill="none" xmlns="http://www.w3.org/2000/svg">
<path fill-rule="evenodd" clip-rule="evenodd" d="M10.7368 3.59113L4.99992 6.90424L10.7409 10.2181L16.4793 6.90496L10.7368 3.59113ZM18.1466 9.79135L12.4075 13.1048L12.4069 19.7325L18.1466 16.4183L18.1466 9.79135ZM19.8133 19.305L14.0734 22.6193L19.8142 25.9331L25.5534 22.6195L19.8133 19.305ZM27.2199 25.5063L21.4809 28.8198V35.4466L27.2199 32.1332V25.5063ZM18.1476 35.4469V28.8199L12.4067 25.506V32.1331L18.1476 35.4469ZM9.07358 19.7328L3.33333 16.4183V9.79104L9.0742 13.1048L9.07358 19.7328ZM9.07332 23.5818L1.24988 19.0643C0.476444 18.6177 0 17.7925 0 16.8993V6.9046C0 6.30923 0.317588 5.75908 0.833157 5.46133L9.48635 0.463995C10.2597 0.0173598 11.2126 0.0172004 11.9862 0.463574L20.6463 5.46105C21.1622 5.75872 21.48 6.30903 21.48 6.9046L21.48 16.4183L29.72 21.1763C30.2357 21.474 30.5533 22.0242 30.5533 22.6196V32.6143C30.5533 33.5075 30.0768 34.3328 29.3033 34.7794L20.6476 39.7767C20.132 40.0744 19.4967 40.0744 18.9811 39.7768L10.3235 34.7794C9.5499 34.3329 9.07332 33.5075 9.07332 32.6143V23.5818Z" fill="#0F0F0F"/>
<path d="M38.8333 27.5002V10.4902H47.1866C48.9133 10.4902 50.2122 10.8947 51.0833 11.7036C51.9544 12.4969 52.39 13.5469 52.39 14.8536C52.39 15.7247 52.1644 16.5025 51.7133 17.1869C51.2778 17.8713 50.6478 18.3302 49.8233 18.5636V18.7502C50.8033 18.9525 51.55 19.4113 52.0633 20.1269C52.5922 20.8269 52.8566 21.6591 52.8566 22.6236C52.8566 24.2258 52.32 25.4391 51.2466 26.2636C50.1889 27.088 48.6878 27.5002 46.7433 27.5002H38.8333ZM42.3566 17.4669H46.3233C47.1633 17.4669 47.77 17.2725 48.1433 16.8836C48.5322 16.4947 48.7266 15.9891 48.7266 15.3669C48.7266 14.6669 48.4933 14.1458 48.0266 13.8036C47.5755 13.4458 46.9689 13.2669 46.2066 13.2669H42.3566V17.4669ZM42.3566 24.7002H46.3466C47.3111 24.7002 48.0189 24.4902 48.47 24.0702C48.9211 23.6502 49.1466 23.098 49.1466 22.4136C49.1466 21.6358 48.9055 21.068 48.4233 20.7102C47.9566 20.3369 47.3111 20.1502 46.4866 20.1502H42.3566V24.7002Z" fill="#0F0F0F"/>
<path d="M58.7624 27.7102C57.3157 27.7102 56.2112 27.2902 55.449 26.4502C54.6868 25.6102 54.3057 24.3891 54.3057 22.7869V14.9936H57.7357V21.8769C57.7357 22.8725 57.9146 23.6347 58.2724 24.1636C58.6457 24.6769 59.2601 24.9336 60.1157 24.9336C60.9868 24.9336 61.6557 24.638 62.1224 24.0469C62.6046 23.4402 62.8457 22.7247 62.8457 21.9002V14.9936H66.2757V27.5002H62.9857L62.8457 25.2136H62.6824C62.3868 26.0225 61.8812 26.6447 61.1657 27.0802C60.4657 27.5002 59.6646 27.7102 58.7624 27.7102Z" fill="#0F0F0F"/>
<path d="M68.6302 13.3836V10.4902H72.0602V13.3836H68.6302ZM68.6302 27.5002V14.9936H72.0602V27.5002H68.6302Z" fill="#0F0F0F"/>
<path d="M74.5437 27.5002V10.4902H77.9737V27.5002H74.5437Z" fill="#0F0F0F"/>
<path d="M84.7039 27.7102C83.2106 27.7102 82.005 27.1736 81.0872 26.1002C80.1695 25.0113 79.7106 23.3936 79.7106 21.2469C79.7106 19.0847 80.1695 17.4669 81.0872 16.3936C82.005 15.3047 83.2106 14.7602 84.7039 14.7602C85.6684 14.7602 86.4928 14.978 87.1772 15.4136C87.8773 15.8491 88.375 16.4325 88.6706 17.1636H88.8573V10.4902H92.2873V27.5002H88.9739L88.8573 25.3069H88.6706C88.375 26.0225 87.8773 26.6058 87.1772 27.0569C86.4928 27.4925 85.6684 27.7102 84.7039 27.7102ZM86.0106 24.9336C86.6484 24.9336 87.1695 24.7858 87.5739 24.4902C87.9939 24.1947 88.305 23.8136 88.5073 23.3469C88.7095 22.8647 88.8106 22.3591 88.8106 21.8302V20.6402C88.8106 20.0958 88.7095 19.5902 88.5073 19.1236C88.305 18.6569 87.9939 18.2758 87.5739 17.9802C87.1695 17.6847 86.6484 17.5369 86.0106 17.5369C85.1706 17.5369 84.4939 17.8402 83.9806 18.4469C83.4672 19.038 83.2106 19.9713 83.2106 21.2469C83.2106 22.5069 83.4672 23.4402 83.9806 24.0469C84.4939 24.638 85.1706 24.9336 86.0106 24.9336Z" fill="#0F0F0F"/>
<path d="M94.7562 13.3836V10.4902H98.1862V13.3836H94.7562ZM94.7562 27.5002V14.9936H98.1862V27.5002H94.7562Z" fill="#0F0F0F"/>
<path d="M100.67 27.5002V14.9936H103.96L104.1 17.2569H104.24C104.582 16.4325 105.111 15.8102 105.826 15.3902C106.542 14.9702 107.343 14.7602 108.23 14.7602C109.07 14.7602 109.816 14.9313 110.47 15.2736C111.139 15.6158 111.668 16.168 112.056 16.9302C112.445 17.6769 112.64 18.6802 112.64 19.9402V27.5002H109.21V20.6869C109.21 19.6291 109.023 18.8436 108.65 18.3302C108.276 17.8169 107.678 17.5602 106.853 17.5602C105.966 17.5602 105.282 17.8636 104.8 18.4702C104.333 19.0613 104.1 19.7536 104.1 20.5469V27.5002H100.67Z" fill="#0F0F0F"/>
<path d="M117.838 31.3969C116.407 31.3969 115.349 31.1558 114.665 30.6736C113.996 30.1913 113.661 29.5458 113.661 28.7369C113.661 28.0525 113.91 27.5002 114.408 27.0802C114.906 26.6602 115.474 26.4191 116.112 26.3569V26.1702C115.614 26.0147 115.217 25.758 114.922 25.4002C114.642 25.0269 114.501 24.6069 114.501 24.1402C114.501 23.5802 114.688 23.1058 115.062 22.7169C115.45 22.3125 115.956 22.0402 116.578 21.9002V21.6669C116.049 21.3713 115.621 20.9669 115.295 20.4536C114.984 19.9402 114.828 19.3336 114.828 18.6336C114.828 17.4669 115.295 16.5336 116.228 15.8336C117.177 15.118 118.445 14.7602 120.032 14.7602C120.296 14.7602 120.568 14.7836 120.848 14.8302C121.144 14.8613 121.416 14.9158 121.665 14.9936C121.883 14.1069 122.357 13.4147 123.088 12.9169C123.819 12.4036 124.776 12.1391 125.958 12.1236V14.7836C125.367 14.768 124.838 14.838 124.371 14.9936C123.905 15.1336 123.547 15.3591 123.298 15.6702C123.858 15.9347 124.317 16.3547 124.675 16.9302C125.033 17.4902 125.212 18.1358 125.212 18.8669C125.212 20.018 124.753 20.9358 123.835 21.6202C122.933 22.3047 121.649 22.6469 119.985 22.6469C119.674 22.6469 119.363 22.6313 119.052 22.6002C118.74 22.5691 118.437 22.5225 118.142 22.4602C117.893 22.4758 117.69 22.5613 117.535 22.7169C117.395 22.8569 117.325 23.0358 117.325 23.2536C117.325 23.5491 117.488 23.7436 117.815 23.8369C118.157 23.9147 118.538 23.9536 118.958 23.9536H121.992C123.454 23.9536 124.527 24.2413 125.212 24.8169C125.912 25.3769 126.277 26.2091 126.308 27.3136C126.339 28.2469 126.145 29.0091 125.725 29.6002C125.32 30.2069 124.745 30.658 123.998 30.9536C123.252 31.2491 122.388 31.3969 121.408 31.3969H117.838ZM120.055 20.5002C120.693 20.5002 121.183 20.3369 121.525 20.0102C121.867 19.668 122.038 19.2325 122.038 18.7036C122.038 18.128 121.852 17.6847 121.478 17.3736C121.105 17.0625 120.623 16.9069 120.032 16.9069C119.409 16.9069 118.919 17.078 118.562 17.4202C118.204 17.7625 118.025 18.1902 118.025 18.7036C118.025 19.2636 118.212 19.7069 118.585 20.0336C118.958 20.3447 119.448 20.5002 120.055 20.5002ZM118.352 29.4836H121.362C122.404 29.4836 122.925 29.0869 122.925 28.2936C122.925 27.8425 122.777 27.5547 122.481 27.4302C122.186 27.2902 121.844 27.2202 121.455 27.2202H117.628C117.333 27.2825 117.091 27.4147 116.905 27.6169C116.718 27.8191 116.625 28.0602 116.625 28.3402C116.625 28.7291 116.773 29.0169 117.068 29.2036C117.379 29.3902 117.807 29.4836 118.352 29.4836Z" fill="#0F0F0F"/>
<path d="M127.978 27.5002V10.4902H136.331C138.058 10.4902 139.356 10.8947 140.228 11.7036C141.099 12.4969 141.534 13.5469 141.534 14.8536C141.534 15.7247 141.309 16.5025 140.858 17.1869C140.422 17.8713 139.792 18.3302 138.968 18.5636V18.7502C139.948 18.9525 140.694 19.4113 141.208 20.1269C141.736 20.8269 142.001 21.6591 142.001 22.6236C142.001 24.2258 141.464 25.4391 140.391 26.2636C139.333 27.088 137.832 27.5002 135.888 27.5002H127.978ZM131.501 17.4669H135.468C136.308 17.4669 136.914 17.2725 137.288 16.8836C137.676 16.4947 137.871 15.9891 137.871 15.3669C137.871 14.6669 137.638 14.1458 137.171 13.8036C136.72 13.4458 136.113 13.2669 135.351 13.2669H131.501V17.4669ZM131.501 24.7002H135.491C136.455 24.7002 137.163 24.4902 137.614 24.0702C138.065 23.6502 138.291 23.098 138.291 22.4136C138.291 21.6358 138.05 21.068 137.568 20.7102C137.101 20.3369 136.455 20.1502 135.631 20.1502H131.501V24.7002Z" fill="#0F0F0F"/>
<path d="M143.794 27.5002V10.4902H147.225V27.5002H143.794Z" fill="#0F0F0F"/>
<path d="M155.238 27.7102C153.994 27.7102 152.897 27.4536 151.948 26.9402C150.999 26.4269 150.26 25.688 149.731 24.7236C149.218 23.7591 148.961 22.6002 148.961 21.2469C148.961 19.9558 149.21 18.828 149.708 17.8636C150.206 16.8836 150.921 16.1213 151.855 15.5769C152.788 15.0325 153.916 14.7602 155.238 14.7602C156.482 14.7602 157.571 15.0169 158.505 15.5302C159.454 16.0436 160.185 16.7902 160.698 17.7702C161.227 18.7347 161.491 19.8936 161.491 21.2469C161.491 22.538 161.242 23.6736 160.745 24.6536C160.247 25.618 159.531 26.3725 158.598 26.9169C157.68 27.4458 156.56 27.7102 155.238 27.7102ZM155.215 24.9336C156.055 24.9336 156.731 24.6302 157.245 24.0236C157.758 23.4169 158.015 22.4913 158.015 21.2469C158.015 20.0025 157.766 19.0769 157.268 18.4702C156.77 17.8636 156.094 17.5602 155.238 17.5602C154.382 17.5602 153.698 17.8636 153.185 18.4702C152.671 19.0769 152.415 20.0025 152.415 21.2469C152.415 22.4758 152.664 23.4013 153.161 24.0236C153.675 24.6302 154.359 24.9336 155.215 24.9336Z" fill="#0F0F0F"/>
<path d="M168.897 27.7102C167.653 27.7102 166.564 27.4458 165.631 26.9169C164.697 26.3725 163.974 25.618 163.461 24.6536C162.947 23.6736 162.691 22.538 162.691 21.2469C162.691 19.9402 162.947 18.8047 163.461 17.8402C163.99 16.8602 164.728 16.1058 165.677 15.5769C166.626 15.0325 167.738 14.7602 169.014 14.7602C170.087 14.7602 171.044 14.9625 171.884 15.3669C172.724 15.7713 173.385 16.3313 173.867 17.0469C174.365 17.7625 174.637 18.5947 174.684 19.5436H171.324C171.215 18.8902 170.943 18.4002 170.507 18.0736C170.072 17.7313 169.543 17.5602 168.921 17.5602C168.018 17.5602 167.334 17.8947 166.867 18.5636C166.401 19.2325 166.167 20.1269 166.167 21.2469C166.167 22.4758 166.416 23.3936 166.914 24.0002C167.427 24.6069 168.088 24.9102 168.897 24.9102C169.628 24.9102 170.204 24.7236 170.624 24.3502C171.06 23.9769 171.308 23.4869 171.371 22.8802H174.707C174.661 23.8602 174.381 24.7158 173.867 25.4469C173.37 26.1625 172.693 26.7225 171.837 27.1269C170.982 27.5158 170.002 27.7102 168.897 27.7102Z" fill="#0F0F0F"/>
<path d="M176.346 27.5002V10.4902H179.823V20.1736L180.85 18.9836L184.56 14.9936H188.783L183.976 19.9402L188.876 27.5002H184.84L182.296 23.5336L181.55 22.2269L179.823 23.9302V27.5002H176.346Z" fill="#0F0F0F"/>
<path d="M194.887 27.7336C193.067 27.7336 191.659 27.3525 190.664 26.5902C189.684 25.8125 189.202 24.8013 189.217 23.5569H192.577C192.593 24.2258 192.826 24.708 193.277 25.0036C193.744 25.2836 194.312 25.4236 194.981 25.4236C195.681 25.4236 196.209 25.3069 196.567 25.0736C196.925 24.8247 197.104 24.4902 197.104 24.0702C197.104 23.4947 196.894 23.1213 196.474 22.9502C196.069 22.7791 195.424 22.6313 194.537 22.5069C193.619 22.3825 192.779 22.2036 192.017 21.9702C191.255 21.7213 190.648 21.348 190.197 20.8502C189.762 20.3525 189.544 19.6447 189.544 18.7269C189.544 17.4047 190.042 16.4169 191.037 15.7636C192.048 15.0947 193.371 14.7602 195.004 14.7602C196.606 14.7602 197.882 15.1102 198.831 15.8102C199.779 16.4947 200.269 17.4591 200.301 18.7036H196.941C196.941 18.1747 196.754 17.7702 196.381 17.4902C196.023 17.2102 195.533 17.0702 194.911 17.0702C194.273 17.0702 193.791 17.1947 193.464 17.4436C193.137 17.6769 192.974 17.988 192.974 18.3769C192.974 18.8436 193.184 19.1702 193.604 19.3569C194.024 19.5436 194.693 19.6991 195.611 19.8236C196.264 19.9169 196.886 20.0336 197.477 20.1736C198.068 20.298 198.589 20.5002 199.041 20.7802C199.507 21.0447 199.873 21.418 200.137 21.9002C200.417 22.3669 200.557 22.9813 200.557 23.7436C200.557 25.1125 200.052 26.1236 199.041 26.7769C198.029 27.4147 196.645 27.7336 194.887 27.7336Z" fill="#0F0F0F"/>
</svg>
