<svg width="136" height="41" viewBox="0 0 136 41" fill="none" xmlns="http://www.w3.org/2000/svg">
<path d="M12 4C12 10.6274 6.62742 16 0 16V24H12V36H20C20 29.3726 25.3726 24 32 24V16H20V4H12Z" fill="#0F0F0F"/>
<path d="M48.8394 28.2647C47.0431 28.2647 45.5011 27.8834 44.2132 27.1209C42.9253 26.3414 41.934 25.2653 41.2392 23.8927C40.5444 22.5031 40.197 20.9018 40.197 19.0885C40.197 17.2753 40.5444 15.674 41.2392 14.2844C41.934 12.8949 42.9253 11.8103 44.2132 11.0308C45.5011 10.2513 47.0431 9.86155 48.8394 9.86155C50.9746 9.86155 52.72 10.3953 54.0756 11.4629C55.4483 12.5136 56.304 13.9963 56.6429 15.9112H53.0589C52.8386 14.9453 52.3641 14.1912 51.6354 13.6489C50.9237 13.0897 49.9748 12.8101 48.7885 12.8101C47.1448 12.8101 45.8569 13.3693 44.9249 14.4878C43.9929 15.6062 43.5269 17.1398 43.5269 19.0885C43.5269 21.0373 43.9929 22.5709 44.9249 23.6893C45.8569 24.7908 47.1448 25.3416 48.7885 25.3416C49.9748 25.3416 50.9237 25.0874 51.6354 24.579C52.3641 24.0537 52.8386 23.3335 53.0589 22.4184H56.6429C56.304 24.2485 55.4483 25.6805 54.0756 26.7142C52.72 27.7479 50.9746 28.2647 48.8394 28.2647Z" fill="#0F0F0F"/>
<path d="M57.9216 27.9597V9.6582H61.1752V27.9597H57.9216Z" fill="#0F0F0F"/>
<path d="M68.77 28.2647C67.5838 28.2647 66.5247 27.9766 65.5927 27.4005C64.6607 26.8243 63.9235 26.0363 63.3813 25.0365C62.839 24.0367 62.5679 22.9014 62.5679 21.6304C62.5679 20.3595 62.839 19.2326 63.3813 18.2497C63.9235 17.2499 64.6607 16.4704 65.5927 15.9112C66.5247 15.3351 67.5838 15.047 68.77 15.047C69.719 15.047 70.5494 15.2249 71.2611 15.5808C71.9728 15.9366 72.549 16.4365 72.9896 17.0805L73.1675 15.352H76.2431V27.9597H73.1929L72.9896 26.155C72.5829 26.7142 72.0406 27.2056 71.3628 27.6292C70.7019 28.0529 69.8376 28.2647 68.77 28.2647ZM69.4564 25.4178C70.507 25.4178 71.3628 25.0704 72.0236 24.3756C72.7015 23.6639 73.0404 22.7573 73.0404 21.6558C73.0404 20.5544 72.7015 19.6562 72.0236 18.9615C71.3628 18.2497 70.507 17.8939 69.4564 17.8939C68.4227 17.8939 67.5669 18.2413 66.8891 18.936C66.2112 19.6308 65.8723 20.5289 65.8723 21.6304C65.8723 22.7319 66.2112 23.6385 66.8891 24.3502C67.5669 25.0619 68.4227 25.4178 69.4564 25.4178Z" fill="#0F0F0F"/>
<path d="M78.0312 27.9597V15.352H80.9035L81.1577 17.4872C81.5475 16.7416 82.1067 16.1484 82.8353 15.7079C83.581 15.2673 84.4537 15.047 85.4535 15.047C87.0125 15.047 88.2241 15.5384 89.0883 16.5213C89.9526 17.5041 90.3847 18.9445 90.3847 20.8424V27.9597H87.1311V21.1475C87.1311 20.0629 86.9108 19.2326 86.4702 18.6564C86.0296 18.0803 85.3433 17.7922 84.4113 17.7922C83.4962 17.7922 82.7421 18.1142 82.149 18.7581C81.5729 19.402 81.2848 20.3002 81.2848 21.4525V27.9597H78.0312Z" fill="#0F0F0F"/>
<path d="M97.7663 28.2647C96.58 28.2647 95.5209 27.9766 94.5889 27.4005C93.6569 26.8243 92.9198 26.0363 92.3775 25.0365C91.8352 24.0367 91.5641 22.9014 91.5641 21.6304C91.5641 20.3595 91.8352 19.2326 92.3775 18.2497C92.9198 17.2499 93.6569 16.4704 94.5889 15.9112C95.5209 15.3351 96.58 15.047 97.7663 15.047C98.7152 15.047 99.5456 15.2249 100.257 15.5808C100.969 15.9366 101.545 16.4365 101.986 17.0805V9.6582H105.239V27.9597H102.342L101.986 26.155C101.579 26.7142 101.037 27.2056 100.359 27.6292C99.6981 28.0529 98.8338 28.2647 97.7663 28.2647ZM98.4526 25.4178C99.5032 25.4178 100.359 25.0704 101.02 24.3756C101.698 23.6639 102.037 22.7573 102.037 21.6558C102.037 20.5544 101.698 19.6562 101.02 18.9615C100.359 18.2497 99.5032 17.8939 98.4526 17.8939C97.4189 17.8939 96.5631 18.2413 95.8853 18.936C95.2074 19.6308 94.8685 20.5289 94.8685 21.6304C94.8685 22.7319 95.2074 23.6385 95.8853 24.3502C96.5631 25.0619 97.4189 25.4178 98.4526 25.4178Z" fill="#0F0F0F"/>
<path d="M113.153 28.2647C111.882 28.2647 110.755 27.9936 109.773 27.4513C108.79 26.909 108.019 26.1465 107.46 25.1636C106.9 24.1808 106.621 23.0454 106.621 21.7575C106.621 20.4527 106.892 19.2919 107.434 18.2751C107.993 17.2584 108.756 16.4704 109.722 15.9112C110.705 15.3351 111.857 15.047 113.179 15.047C114.416 15.047 115.509 15.3181 116.458 15.8604C117.407 16.4026 118.144 17.1483 118.669 18.0972C119.211 19.0292 119.483 20.0714 119.483 21.2237C119.483 21.4101 119.474 21.605 119.457 21.8084C119.457 22.0117 119.449 22.2235 119.432 22.4438H109.849C109.917 23.4267 110.256 24.1977 110.866 24.7569C111.493 25.3161 112.247 25.5957 113.128 25.5957C113.789 25.5957 114.34 25.4517 114.78 25.1636C115.238 24.8586 115.577 24.4688 115.797 23.9944H119.101C118.864 24.7908 118.466 25.5195 117.907 26.1804C117.364 26.8243 116.687 27.3327 115.873 27.7055C115.077 28.0783 114.17 28.2647 113.153 28.2647ZM113.179 17.6905C112.382 17.6905 111.679 17.9193 111.069 18.3768C110.459 18.8174 110.069 19.4952 109.9 20.4103H116.178C116.127 19.58 115.822 18.9191 115.263 18.4277C114.704 17.9362 114.009 17.6905 113.179 17.6905Z" fill="#0F0F0F"/>
<path d="M125.905 28.2647C124.786 28.2647 123.803 28.0868 122.956 27.7309C122.109 27.3581 121.431 26.8497 120.923 26.2058C120.414 25.5618 120.109 24.8162 120.008 23.9689H123.287C123.388 24.4604 123.659 24.884 124.1 25.2399C124.558 25.5788 125.142 25.7483 125.854 25.7483C126.566 25.7483 127.083 25.6042 127.404 25.3161C127.743 25.0281 127.913 24.6976 127.913 24.3248C127.913 23.7825 127.676 23.4182 127.201 23.2318C126.727 23.0285 126.066 22.8336 125.218 22.6472C124.676 22.5285 124.125 22.3845 123.566 22.2151C123.007 22.0456 122.49 21.8338 122.016 21.5796C121.558 21.3085 121.185 20.9695 120.897 20.5628C120.609 20.1392 120.465 19.6223 120.465 19.0123C120.465 17.8939 120.906 16.9534 121.787 16.1908C122.685 15.4283 123.939 15.047 125.549 15.047C127.04 15.047 128.226 15.3944 129.108 16.0891C130.006 16.7839 130.539 17.7414 130.709 18.9615H127.633C127.447 18.0294 126.744 17.5634 125.523 17.5634C124.913 17.5634 124.439 17.682 124.1 17.9193C123.778 18.1565 123.617 18.4531 123.617 18.8089C123.617 19.1818 123.863 19.4783 124.354 19.6986C124.846 19.9189 125.498 20.1222 126.311 20.3086C127.193 20.512 127.998 20.7408 128.726 20.995C129.472 21.2322 130.065 21.5965 130.506 22.088C130.946 22.5624 131.166 23.2487 131.166 24.1469C131.183 24.9264 130.98 25.6296 130.556 26.2566C130.133 26.8836 129.523 27.3751 128.726 27.7309C127.93 28.0868 126.989 28.2647 125.905 28.2647Z" fill="#0F0F0F"/>
<path d="M137.744 27.9597C136.422 27.9597 135.363 27.6377 134.567 26.9938C133.77 26.3498 133.372 25.206 133.372 23.5622V18.0718H131.211V15.352H133.372L133.753 11.9713H136.626V15.352H140.032V18.0718H137.473C137.005 18.0718 136.626 18.4511 136.626 18.9191V23.5877C136.626 24.1977 136.753 24.6214 137.007 24.8586C137.278 25.0789 137.735 25.189 138.379 25.189H139.955V27.9597H137.744Z" fill="#0F0F0F"/>
<path d="M143.054 13.3948C142.461 13.3948 141.969 13.2168 141.58 12.861C141.207 12.5051 141.02 12.056 141.02 11.5138C141.02 10.9715 141.207 10.5309 141.58 10.192C141.969 9.83613 142.461 9.6582 143.054 9.6582C143.647 9.6582 144.13 9.83613 144.503 10.192C144.892 10.5309 145.087 10.9715 145.087 11.5138C145.087 12.056 144.892 12.5051 144.503 12.861C144.13 13.2168 143.647 13.3948 143.054 13.3948ZM141.427 27.9597V15.352H144.681V27.9597H141.427Z" fill="#0F0F0F"/>
<path d="M146.552 27.9597V15.352H149.424L149.678 17.4872C150.068 16.7416 150.627 16.1484 151.356 15.7079C152.101 15.2673 152.974 15.047 153.974 15.047C155.533 15.047 156.744 15.5384 157.609 16.5213C158.473 17.5041 158.905 18.9445 158.905 20.8424V27.9597H155.651V21.1475C155.651 20.0629 155.431 19.2326 154.991 18.6564C154.55 18.0803 153.864 17.7922 152.932 17.7922C152.017 17.7922 151.262 18.1142 150.669 18.7581C150.093 19.402 149.805 20.3002 149.805 21.4525V27.9597H146.552Z" fill="#0F0F0F"/>
<path d="M166.617 28.2647C165.346 28.2647 164.219 27.9936 163.236 27.4513C162.253 26.909 161.482 26.1465 160.923 25.1636C160.364 24.1808 160.084 23.0454 160.084 21.7575C160.084 20.4527 160.356 19.2919 160.898 18.2751C161.457 17.2584 162.22 16.4704 163.186 15.9112C164.168 15.3351 165.321 15.047 166.642 15.047C167.879 15.047 168.972 15.3181 169.921 15.8604C170.87 16.4026 171.608 17.1483 172.133 18.0972C172.675 19.0292 172.946 20.0714 172.946 21.2237C172.946 21.4101 172.938 21.605 172.921 21.8084C172.921 22.0117 172.912 22.2235 172.895 22.4438H163.313C163.38 23.4267 163.719 24.1977 164.329 24.7569C164.956 25.3161 165.71 25.5957 166.592 25.5957C167.253 25.5957 167.803 25.4517 168.244 25.1636C168.701 24.8586 169.04 24.4688 169.261 23.9944H172.565C172.328 24.7908 171.93 25.5195 171.37 26.1804C170.828 26.8243 170.15 27.3327 169.337 27.7055C168.54 28.0783 167.634 28.2647 166.617 28.2647ZM166.642 17.6905C165.846 17.6905 165.143 17.9193 164.533 18.3768C163.923 18.8174 163.533 19.4952 163.363 20.4103H169.642C169.591 19.58 169.286 18.9191 168.727 18.4277C168.168 17.9362 167.473 17.6905 166.642 17.6905Z" fill="#0F0F0F"/>
</svg>
