<?xml version="1.0" encoding="UTF-8"?>
<svg id="Camada_2" data-name="Camada 2" xmlns="http://www.w3.org/2000/svg" viewBox="0 0 634.72 144.19">
  <g id="Camada_1-2" data-name="Camada 1">
    <g>
      <path d="M44.48,144.19c-8.49,0-15.57-1.05-21.25-3.14-5.68-2.1-10.2-5.02-13.56-8.76-3.09-3.45-5.32-7.36-6.69-11.74-.19-.59.25-1.2.87-1.25l23.52-1.68c.44-.03.83.24.98.66.93,2.53,2.53,4.56,4.8,6.07,2.48,1.65,6.26,2.48,11.33,2.48,5.95,0,10.5-1.41,13.64-4.22,3.14-2.81,4.71-7.3,4.71-13.48v-6.02c0-.95-1.2-1.32-1.77-.56-2.05,2.79-4.82,5.11-8.32,6.99-4.63,2.48-9.81,3.72-15.54,3.72-7.28,0-13.72-1.79-19.35-5.37-5.62-3.58-10-8.6-13.15-15.05S0,78.82,0,70.11s1.57-15.98,4.71-22.49c3.14-6.5,7.5-11.6,13.06-15.3,5.57-3.69,11.93-5.54,19.1-5.54,6.5,0,11.99,1.43,16.45,4.3,3.43,2.2,6.22,4.95,8.38,8.26.53.81,1.79.45,1.79-.52v-9.08c0-.54.43-.97.97-.97h22.36c.54,0,.97.43.97.97v78.9c0,7.94-1.82,14.52-5.46,19.76-3.64,5.24-8.71,9.18-15.21,11.82-6.51,2.65-14.06,3.97-22.65,3.97ZM44.32,94.92c5.73,0,10.28-2.2,13.64-6.61,3.36-4.41,5.04-10.53,5.04-18.35,0-5.18-.74-9.65-2.23-13.39-1.49-3.75-3.64-6.61-6.45-8.6s-6.15-2.98-10-2.98c-5.95,0-10.58,2.26-13.89,6.78-3.31,4.52-4.96,10.58-4.96,18.19s1.71,13.81,5.13,18.27c3.42,4.46,7.99,6.7,13.72,6.7Z"/>
      <path d="M135.92,119.39c-9.15,0-16.62-2.12-22.41-6.37-5.79-4.24-8.68-10.17-8.68-17.78s2.45-13.86,7.36-18.11c4.9-4.24,12.15-7.36,21.74-9.34l27.81-5.46c.46-.09.8-.51.79-.98-.12-5.32-1.41-9.38-3.88-12.16-2.59-2.92-6.31-4.38-11.16-4.38s-8.43,1.08-11.08,3.22c-2.47,2.01-4.13,4.91-4.96,8.69-.1.47-.52.8-.99.78l-23.02-1.07c-.59-.03-1.03-.58-.92-1.16,1.79-9.16,6.11-16.15,12.94-20.97,7.11-5.02,16.45-7.52,28.03-7.52,13.23,0,23.18,3.14,29.85,9.43,6.67,6.28,10,15.49,10,27.62v30.26c0,2.54.41,4.22,1.24,5.04.83.83,2.07,1.24,3.72,1.24h1.51c.54,0,.97.43.97.97v15.3c0,.46-.31.85-.76.95-.75.16-1.73.32-2.97.48-1.71.22-3.39.33-5.04.33-3.53,0-6.81-.61-9.84-1.82-3.03-1.21-5.49-3.28-7.36-6.2-1.63-2.54-2.55-6.01-2.76-10.42-.04-.83.91-1.33,1.57-.82h0c.32.25.46.67.34,1.06-1.13,3.7-3.02,6.96-5.68,9.77-2.81,2.98-6.45,5.29-10.91,6.95s-9.62,2.48-15.46,2.48ZM141.88,102.36c4.08,0,7.66-.8,10.75-2.4,3.08-1.6,5.51-3.94,7.28-7.03,1.76-3.08,2.65-6.72,2.65-10.91v-3.1c0-.62-.57-1.08-1.17-.95l-19,4.05c-3.97.77-6.97,2.07-9.01,3.89-2.04,1.82-3.06,4.16-3.06,7.03s.99,5.29,2.98,6.95,4.85,2.48,8.6,2.48Z"/>
      <path d="M257.46,119.39c-6.18,0-11.55-1.32-16.12-3.97-3.66-2.12-6.67-4.9-9.02-8.36-.53-.77-1.73-.43-1.77.51l-.34,8.9c-.02.52-.45.93-.97.93h-21.74c-.54,0-.97-.43-.97-.97V.97c0-.54.43-.97.97-.97h22.86c.54,0,.97.43.97.97v37.12c0,.93,1.18,1.33,1.74.59,2.18-2.94,5.01-5.49,8.51-7.67,4.52-2.81,9.81-4.22,15.87-4.22,7.5,0,14,1.9,19.51,5.71,5.51,3.8,9.78,9.18,12.82,16.12,3.03,6.94,4.55,15.1,4.55,24.47s-1.52,17.53-4.55,24.47c-3.03,6.94-7.3,12.32-12.82,16.12-5.51,3.8-12.02,5.71-19.51,5.71ZM250.52,100.37c5.51,0,9.95-2.4,13.31-7.19,3.36-4.79,5.04-11.49,5.04-20.09s-1.65-15.3-4.96-20.09c-3.31-4.79-7.72-7.19-13.23-7.19-4.08,0-7.58,1.08-10.5,3.22-2.92,2.15-5.13,5.27-6.61,9.34-1.49,4.08-2.23,8.99-2.23,14.72s.74,10.47,2.23,14.55c1.49,4.08,3.69,7.22,6.61,9.43,2.92,2.21,6.37,3.31,10.33,3.31Z"/>
      <path d="M381.97,119.39c-7.5,0-13.97-1.9-19.43-5.71-5.46-3.8-9.65-9.15-12.57-16.04-2.92-6.89-4.38-15.07-4.38-24.56s1.49-17.67,4.46-24.56c2.98-6.89,7.19-12.24,12.65-16.04,5.46-3.8,11.88-5.71,19.26-5.71,6.28,0,11.71,1.3,16.29,3.89,3.52,2,6.38,4.57,8.56,7.71.55.79,1.77.42,1.77-.54V.97c0-.54.43-.97.97-.97h22.86c.54,0,.97.43.97.97v115.46c0,.54-.43.97-.97.97h-21.74c-.52,0-.95-.41-.97-.93l-.34-8.84c-.04-.94-1.24-1.28-1.77-.5-2.31,3.43-5.38,6.19-9.19,8.29-4.8,2.65-10.28,3.97-16.45,3.97ZM390.08,100.37c3.97,0,7.33-1.05,10.09-3.14,2.75-2.09,4.85-5.15,6.28-9.18,1.43-4.02,2.15-9.01,2.15-14.96s-.72-11.11-2.15-15.13c-1.43-4.02-3.53-7.05-6.28-9.09-2.76-2.04-6.12-3.06-10.09-3.06-5.84,0-10.47,2.45-13.89,7.36-3.42,4.91-5.13,11.55-5.13,19.93s1.74,14.88,5.21,19.84c3.47,4.96,8.07,7.44,13.81,7.44Z"/>
      <path d="M493.43,119.39c-9.04,0-16.9-1.9-23.56-5.71-6.67-3.8-11.85-9.18-15.54-16.12-3.7-6.95-5.54-15.1-5.54-24.47s1.84-17.5,5.54-24.39c3.69-6.89,8.85-12.26,15.46-16.12,6.61-3.86,14.44-5.79,23.48-5.79s16.48,1.93,22.99,5.79c6.5,3.86,11.55,9.37,15.13,16.54,3.58,7.17,5.37,15.71,5.37,25.63v3.99c0,.54-.43.97-.97.97h-60.33c-.56,0-1.01.48-.97,1.04.46,6.53,2.34,11.42,5.64,14.67,3.47,3.42,8.07,5.13,13.81,5.13,4.19,0,7.69-.88,10.5-2.65,2.63-1.65,4.56-4.12,5.79-7.42.15-.4.54-.67.96-.64l23.04,1.37c.62.04,1.06.64.88,1.24-2.43,8.26-7.23,14.76-14.39,19.5-7.5,4.96-16.59,7.44-27.28,7.44ZM475.51,64.49h34.73c.56,0,1.02-.48.97-1.04-.46-5.98-2.23-10.48-5.31-13.51-3.25-3.2-7.47-4.79-12.65-4.79s-9.45,1.68-12.81,5.04c-3.16,3.16-5.13,7.56-5.9,13.21-.08.58.38,1.09.97,1.09Z"/>
      <path d="M573.56,116.77l-31.7-86.69c-.23-.63.24-1.31.91-1.31h23.87c.42,0,.79.27.92.67l19.85,60.19c.29.89,1.55.89,1.85,0l19.7-60.18c.13-.4.5-.67.92-.67h23.87c.68,0,1.15.67.91,1.31l-31.86,86.69c-.14.38-.5.64-.91.64h-27.42c-.41,0-.77-.25-.91-.64Z"/>
      <circle cx="320.42" cy="107.3" r="12.09"/>
    </g>
  </g>
</svg>