<svg width="128" height="40" viewBox="0 0 128 40" fill="none" xmlns="http://www.w3.org/2000/svg">
<path fill-rule="evenodd" clip-rule="evenodd" d="M10.1693 4.16602H22.666V8.96709H18.2485C18.9596 10.2722 19.3637 11.7687 19.3637 13.3596C19.3637 18.437 15.2476 22.5531 10.1701 22.5531C5.09265 22.5531 0.976562 18.437 0.976562 13.3596C0.976562 8.28239 5.0922 4.16647 10.1693 4.16602ZM10.1701 17.752C12.596 17.752 14.5626 15.7855 14.5626 13.3596C14.5626 10.9337 12.596 8.96709 10.1701 8.96709H10.1693C7.74376 8.96754 5.77764 10.9339 5.77764 13.3596C5.77764 15.7855 7.74421 17.752 10.1701 17.752Z" fill="#0F0F0F"/>
<path opacity="0.7" d="M10.1696 35.8323C8.45681 35.8323 6.90456 35.5118 5.51289 34.8709C4.12121 34.2566 3.01055 33.3887 2.1809 32.267C1.37801 31.1454 0.976562 29.8635 0.976562 28.4214C0.976562 27.2997 1.13714 26.3783 1.4583 25.6573C1.77945 24.9362 2.26119 24.2419 2.9035 23.5742L6.8778 26.138C6.61017 26.3784 6.40945 26.6588 6.27563 26.9792C6.14182 27.2997 6.07491 27.7003 6.07491 28.181C6.07491 29.0623 6.43621 29.7567 7.15881 30.2641C7.90044 30.7927 8.90421 31.0597 10.1701 31.0652C11.436 31.0597 12.4398 30.7927 13.1814 30.2641C13.904 29.7567 14.2653 29.0623 14.2653 28.181C14.2653 27.7003 14.1984 27.2997 14.0646 26.9792C13.9308 26.6588 13.7301 26.3784 13.4624 26.138L17.4367 23.5742C18.079 24.2419 18.5608 24.9362 18.8819 25.6573C19.2031 26.3783 19.3637 27.2997 19.3637 28.4214C19.3637 29.8635 18.9622 31.1454 18.1593 32.267C17.3297 33.3887 16.219 34.2566 14.8273 34.8709C13.4357 35.5118 11.8825 35.8323 10.1696 35.8323Z" fill="#0F0F0F"/>
<path fill-rule="evenodd" clip-rule="evenodd" d="M76.9484 26.9639C77.7883 27.4772 78.745 27.7339 79.8184 27.7339C80.5961 27.7339 81.3039 27.5783 81.9417 27.2672C82.2773 27.0953 82.5807 26.8954 82.8517 26.6675V27.5005H86.3517V10.5605H82.7817V16.8968C82.5226 16.6926 82.2349 16.5172 81.9184 16.3705C81.2961 16.075 80.5961 15.9272 79.8184 15.9272C78.745 15.9272 77.7883 16.1839 76.9484 16.6972C76.1239 17.2105 75.4706 17.9105 74.9884 18.7972C74.5217 19.6839 74.2884 20.695 74.2884 21.8305C74.2884 22.9661 74.5217 23.9772 74.9884 24.8639C75.4706 25.7505 76.1239 26.4505 76.9484 26.9639ZM81.7784 24.1872C81.405 24.405 80.9617 24.5139 80.4484 24.5139C79.9661 24.5139 79.5306 24.3972 79.1417 24.1639C78.7528 23.9305 78.4495 23.6117 78.2317 23.2072C78.0139 22.8028 77.905 22.3439 77.905 21.8305C77.905 21.3172 78.0139 20.8583 78.2317 20.4539C78.465 20.0494 78.7683 19.7305 79.1417 19.4972C79.5306 19.2639 79.9739 19.1472 80.4717 19.1472C80.9695 19.1472 81.405 19.2639 81.7784 19.4972C82.1672 19.7305 82.4628 20.0494 82.665 20.4539C82.8828 20.8428 82.9917 21.3017 82.9917 21.8305C82.9917 22.3594 82.8828 22.8261 82.665 23.2305C82.4472 23.635 82.1517 23.9539 81.7784 24.1872Z" fill="#0F0F0F"/>
<path d="M35.8934 27.1039C36.9511 27.5394 38.0789 27.7572 39.2767 27.7572C40.91 27.7572 42.3489 27.415 43.5934 26.7305C44.8534 26.0461 45.8334 25.035 46.5334 23.6972C47.2489 22.3439 47.6067 20.6794 47.6067 18.7039V18.1672H38.95V21.2705L43.6827 21.3457C43.592 21.6885 43.4688 22.0057 43.3134 22.2972C42.9556 22.9817 42.4345 23.5105 41.75 23.8839C41.0811 24.2417 40.2645 24.4205 39.3 24.4205C38.3511 24.4205 37.5111 24.2028 36.78 23.7672C36.0489 23.3317 35.4734 22.725 35.0534 21.9472C34.6334 21.1694 34.4234 20.2672 34.4234 19.2405C34.4234 18.2139 34.6334 17.3194 35.0534 16.5572C35.4889 15.7794 36.0878 15.1805 36.85 14.7605C37.6122 14.325 38.4756 14.1072 39.44 14.1072C40.3422 14.1072 41.1511 14.2783 41.8667 14.6205C42.5822 14.9628 43.2045 15.4761 43.7334 16.1605L46.23 13.6639C45.4678 12.7617 44.5034 12.0539 43.3367 11.5405C42.1856 11.0272 40.9022 10.7705 39.4867 10.7705C38.2578 10.7705 37.1067 10.9883 36.0334 11.4239C34.96 11.8439 34.0189 12.4428 33.21 13.2205C32.4167 13.9828 31.7945 14.8772 31.3434 15.9039C30.8922 16.9305 30.6667 18.0428 30.6667 19.2405C30.6667 20.4383 30.8845 21.5583 31.32 22.6005C31.7711 23.6272 32.3856 24.5294 33.1634 25.3072C33.9411 26.0694 34.8511 26.6683 35.8934 27.1039Z" fill="#0F0F0F"/>
<path fill-rule="evenodd" clip-rule="evenodd" d="M51.3203 26.9872C52.2692 27.5005 53.327 27.7572 54.4937 27.7572C55.6759 27.7572 56.7337 27.5005 57.667 26.9872C58.6003 26.4583 59.3392 25.7428 59.8837 24.8405C60.4281 23.9383 60.7003 22.9272 60.7003 21.8072C60.7003 20.6872 60.4281 19.6839 59.8837 18.7972C59.3392 17.895 58.6003 17.1872 57.667 16.6739C56.7337 16.1605 55.6759 15.9039 54.4937 15.9039C53.3114 15.9039 52.2537 16.1683 51.3203 16.6972C50.387 17.2105 49.6481 17.9105 49.1037 18.7972C48.5592 19.6839 48.287 20.6872 48.287 21.8072C48.287 22.9272 48.5592 23.9383 49.1037 24.8405C49.6481 25.7428 50.387 26.4583 51.3203 26.9872ZM55.847 24.1872C55.4581 24.405 55.007 24.5139 54.4937 24.5139C53.9959 24.5139 53.5526 24.405 53.1637 24.1872C52.7748 23.9539 52.4714 23.635 52.2537 23.2305C52.0359 22.8105 51.927 22.3439 51.927 21.8305C51.927 21.3017 52.0359 20.835 52.2537 20.4305C52.4714 20.0261 52.7748 19.715 53.1637 19.4972C53.5526 19.2639 53.9959 19.1472 54.4937 19.1472C55.007 19.1472 55.4503 19.2639 55.8237 19.4972C56.2126 19.715 56.5159 20.0261 56.7337 20.4305C56.9514 20.8194 57.0603 21.2783 57.0603 21.8072C57.0603 22.3361 56.9514 22.8105 56.7337 23.2305C56.5314 23.635 56.2359 23.9539 55.847 24.1872Z" fill="#0F0F0F"/>
<path fill-rule="evenodd" clip-rule="evenodd" d="M67.471 27.7572C66.3043 27.7572 65.2466 27.5005 64.2977 26.9872C63.3643 26.4583 62.6255 25.7428 62.081 24.8405C61.5366 23.9383 61.2643 22.9272 61.2643 21.8072C61.2643 20.6872 61.5366 19.6839 62.081 18.7972C62.6255 17.9105 63.3643 17.2105 64.2977 16.6972C65.231 16.1683 66.2888 15.9039 67.471 15.9039C68.6532 15.9039 69.711 16.1605 70.6443 16.6739C71.5777 17.1872 72.3166 17.895 72.861 18.7972C73.4055 19.6839 73.6777 20.6872 73.6777 21.8072C73.6777 22.9272 73.4055 23.9383 72.861 24.8405C72.3166 25.7428 71.5777 26.4583 70.6443 26.9872C69.711 27.5005 68.6532 27.7572 67.471 27.7572ZM67.471 24.5139C67.9843 24.5139 68.4355 24.405 68.8243 24.1872C69.2132 23.9539 69.5088 23.635 69.711 23.2305C69.9288 22.8105 70.0377 22.3361 70.0377 21.8072C70.0377 21.2783 69.9288 20.8194 69.711 20.4305C69.4932 20.0261 69.1899 19.715 68.801 19.4972C68.4277 19.2639 67.9843 19.1472 67.471 19.1472C66.9732 19.1472 66.5299 19.2639 66.141 19.4972C65.7521 19.715 65.4488 20.0261 65.231 20.4305C65.0132 20.835 64.9043 21.3017 64.9043 21.8305C64.9043 22.3439 65.0132 22.8105 65.231 23.2305C65.4488 23.635 65.7521 23.9539 66.141 24.1872C66.5299 24.405 66.9732 24.5139 67.471 24.5139Z" fill="#0F0F0F"/>
<path d="M96.3047 20.9672L94.0686 27.5005H91.1753L87.2553 16.1605H90.7553L92.6973 22.7521L94.8386 16.1605H97.732L99.8846 22.7298L101.839 16.1605H105.339L101.419 27.5005H98.502L96.3047 20.9672Z" fill="#0F0F0F"/>
<path fill-rule="evenodd" clip-rule="evenodd" d="M108.404 26.9872C109.369 27.5005 110.481 27.7572 111.741 27.7572C112.721 27.7572 113.608 27.5939 114.401 27.2672C115.21 26.925 115.918 26.4194 116.524 25.7505L114.564 23.7905C114.207 24.195 113.802 24.4983 113.351 24.7005C112.916 24.8872 112.418 24.9805 111.858 24.9805C111.489 24.9805 111.143 24.9337 110.821 24.8399L116.664 19.1939C116.213 18.1361 115.552 17.3272 114.681 16.7672C113.81 16.1917 112.752 15.9039 111.508 15.9039C110.326 15.9039 109.26 16.1683 108.311 16.6972C107.378 17.2105 106.639 17.9105 106.094 18.7972C105.566 19.6839 105.301 20.6872 105.301 21.8072C105.301 22.9272 105.573 23.9383 106.118 24.8405C106.678 25.7428 107.44 26.4583 108.404 26.9872ZM113.027 19.1244L108.874 23.1228C108.701 22.6962 108.614 22.2188 108.614 21.6905C108.614 21.0994 108.731 20.5861 108.964 20.1505C109.198 19.6994 109.532 19.3572 109.968 19.1239C110.403 18.875 110.924 18.7505 111.531 18.7505C112.147 18.7505 112.646 18.8752 113.027 19.1244Z" fill="#0F0F0F"/>
<path d="M117.817 27.5005V10.5605H121.387V27.5005H117.817Z" fill="#0F0F0F"/>
<path d="M123.434 10.5605V27.5005H127.004V10.5605H123.434Z" fill="#0F0F0F"/>
</svg>
