<svg width="170" height="40" viewBox="0 0 170 40" fill="none" xmlns="http://www.w3.org/2000/svg">
<path fill-rule="evenodd" clip-rule="evenodd" d="M20.0001 7.49935C20 4.27768 17.3883 1.66602 14.1667 1.66602H6.66667C2.98477 1.66602 0 4.65078 0 8.33268V31.666C0 35.3479 2.98477 38.3327 6.66667 38.3327H14.1667C17.3883 38.3327 20 35.721 20 32.4993C28.0889 32.4993 34.8686 27.1685 36.6667 19.9993C34.8686 12.8302 28.089 7.49935 20.0001 7.49935ZM20 14.9993L20.0001 7.49935C11.9111 7.49937 5.13137 12.8302 3.33333 19.9993C5.13137 27.1684 11.9111 32.4993 20 32.4993V24.9993C22.7614 24.9993 25 22.7608 25 19.9993C25 17.2379 22.7614 14.9993 20 14.9993ZM20 14.9993V24.9993C17.2386 24.9993 15 22.7608 15 19.9993C15 17.2379 17.2386 14.9993 20 14.9993Z" fill="#0F0F0F"/>
<path d="M51.4617 27.7245C49.2417 27.7245 47.5542 27.237 46.3992 26.262C45.2442 25.272 44.6667 23.982 44.6667 22.392H48.4017C48.4317 23.247 48.7242 23.877 49.2792 24.282C49.8342 24.672 50.5917 24.867 51.5517 24.867C53.4417 24.867 54.3867 24.2145 54.3867 22.9095C54.3867 22.3695 54.2142 21.9645 53.8692 21.6945C53.5242 21.4245 53.0517 21.222 52.4517 21.087C51.8517 20.937 51.1617 20.787 50.3817 20.637C48.7167 20.307 47.4042 19.782 46.4442 19.062C45.4992 18.342 45.0267 17.277 45.0267 15.867C45.0267 14.772 45.2892 13.857 45.8142 13.122C46.3542 12.387 47.1042 11.832 48.0642 11.457C49.0392 11.082 50.1642 10.8945 51.4392 10.8945C53.5242 10.8945 55.1217 11.322 56.2317 12.177C57.3567 13.032 57.9267 14.2395 57.9417 15.7995H54.2292C54.2142 15.1245 53.9667 14.607 53.4867 14.247C53.0067 13.872 52.3242 13.6845 51.4392 13.6845C50.6592 13.6845 50.0442 13.842 49.5942 14.157C49.1592 14.457 48.9417 14.877 48.9417 15.417C48.9417 15.897 49.0842 16.2645 49.3692 16.5195C49.6692 16.7745 50.0967 16.9695 50.6517 17.1045C51.2067 17.2245 51.8742 17.352 52.6542 17.487C53.7192 17.667 54.6792 17.937 55.5342 18.297C56.3892 18.642 57.0642 19.152 57.5592 19.827C58.0542 20.502 58.3017 21.4245 58.3017 22.5945C58.3017 23.7495 58.0167 24.7095 57.4467 25.4745C56.8767 26.2395 56.0742 26.8095 55.0392 27.1845C54.0192 27.5445 52.8267 27.7245 51.4617 27.7245Z" fill="#0F0F0F"/>
<path d="M65.379 27.7245C63.414 27.7245 61.9515 27.162 60.9915 26.037C60.0465 24.912 59.574 23.412 59.574 21.537V21.4695C59.574 19.3545 60.099 17.7795 61.149 16.7445C62.214 15.7095 63.6315 15.192 65.4015 15.192C67.0965 15.192 68.4315 15.6195 69.4065 16.4745C70.3815 17.3295 70.899 18.4695 70.959 19.8945H67.584C67.524 19.2645 67.299 18.792 66.909 18.477C66.519 18.162 66.0165 18.0045 65.4015 18.0045C64.6665 18.0045 64.089 18.222 63.669 18.657C63.264 19.092 63.0615 19.677 63.0615 20.412V22.572C63.0615 23.307 63.264 23.8845 63.669 24.3045C64.074 24.7245 64.644 24.9345 65.379 24.9345C66.069 24.9345 66.594 24.7545 66.954 24.3945C67.329 24.0345 67.539 23.577 67.584 23.022H70.9815C70.9665 23.967 70.719 24.792 70.239 25.497C69.774 26.202 69.1215 26.7495 68.2815 27.1395C67.4415 27.5295 66.474 27.7245 65.379 27.7245Z" fill="#0F0F0F"/>
<path d="M72.8094 27.4995V18.0945C72.8094 17.2695 73.0569 16.617 73.5519 16.137C74.0469 15.657 74.6919 15.417 75.4869 15.417H80.4144V18.207H76.2744V27.4995H72.8094Z" fill="#0F0F0F"/>
<path d="M87.2029 27.7245C85.8679 27.7245 84.7504 27.4695 83.8504 26.9595C82.9654 26.4345 82.3054 25.707 81.8704 24.777C81.4354 23.832 81.2179 22.737 81.2179 21.492V21.2895C81.2179 19.9845 81.4579 18.882 81.9379 17.982C82.4179 17.067 83.0854 16.377 83.9404 15.912C84.8104 15.432 85.8079 15.192 86.9329 15.192C88.1629 15.192 89.2054 15.4245 90.0604 15.8895C90.9304 16.3545 91.5904 17.007 92.0404 17.847C92.4904 18.687 92.7154 19.6695 92.7154 20.7945V22.3245H84.7279V22.9545C84.7279 23.5995 84.9454 24.117 85.3804 24.507C85.8304 24.897 86.4004 25.092 87.0904 25.092C87.7054 25.092 88.2079 24.957 88.5979 24.687C89.0029 24.417 89.2429 24.057 89.3179 23.607H92.5804C92.5354 24.432 92.2804 25.152 91.8154 25.767C91.3504 26.382 90.7204 26.862 89.9254 27.207C89.1304 27.552 88.2229 27.7245 87.2029 27.7245ZM84.7279 20.0745V20.187H89.3179V20.0745C89.3179 19.2645 89.1079 18.6795 88.6879 18.3195C88.2679 17.9445 87.7204 17.757 87.0454 17.757C86.3254 17.757 85.7554 17.9595 85.3354 18.3645C84.9304 18.7545 84.7279 19.3245 84.7279 20.0745Z" fill="#0F0F0F"/>
<path d="M99.8047 27.7245C98.4697 27.7245 97.3522 27.4695 96.4522 26.9595C95.5672 26.4345 94.9072 25.707 94.4722 24.777C94.0372 23.832 93.8197 22.737 93.8197 21.492V21.2895C93.8197 19.9845 94.0597 18.882 94.5397 17.982C95.0197 17.067 95.6872 16.377 96.5422 15.912C97.4122 15.432 98.4097 15.192 99.5347 15.192C100.765 15.192 101.807 15.4245 102.662 15.8895C103.532 16.3545 104.192 17.007 104.642 17.847C105.092 18.687 105.317 19.6695 105.317 20.7945V22.3245H97.3297V22.9545C97.3297 23.5995 97.5472 24.117 97.9822 24.507C98.4322 24.897 99.0022 25.092 99.6922 25.092C100.307 25.092 100.81 24.957 101.2 24.687C101.605 24.417 101.845 24.057 101.92 23.607H105.182C105.137 24.432 104.882 25.152 104.417 25.767C103.952 26.382 103.322 26.862 102.527 27.207C101.732 27.552 100.825 27.7245 99.8047 27.7245ZM97.3297 20.0745V20.187H101.92V20.0745C101.92 19.2645 101.71 18.6795 101.29 18.3195C100.87 17.9445 100.322 17.757 99.6472 17.757C98.9272 17.757 98.3572 17.9595 97.9372 18.3645C97.5322 18.7545 97.3297 19.3245 97.3297 20.0745Z" fill="#0F0F0F"/>
<path d="M107.209 27.4995V15.417H110.426L110.674 17.397H110.876C111.131 16.737 111.574 16.2045 112.204 15.7995C112.834 15.3945 113.584 15.192 114.454 15.192C115.744 15.192 116.764 15.5895 117.514 16.3845C118.264 17.1645 118.639 18.402 118.639 20.097V27.4995H115.196V20.547C115.196 19.572 115.001 18.9045 114.611 18.5445C114.221 18.1845 113.696 18.0045 113.036 18.0045C112.256 18.0045 111.664 18.2595 111.259 18.7695C110.869 19.2795 110.674 19.9545 110.674 20.7945V27.4995H107.209Z" fill="#0F0F0F"/>
<path d="M131.165 13.887V11.097H134.607V13.887H131.165ZM131.165 18.207H126.125V24.7995H128.96V27.4995H125.337C124.377 27.4995 123.687 27.252 123.267 26.757C122.862 26.262 122.66 25.617 122.66 24.822V18.207H120.05V15.417H122.66V11.637H126.125V15.417H134.607V27.4995H131.165V18.207Z" fill="#0F0F0F"/>
<path d="M137.334 27.4995V15.417H140.574L140.799 17.3295H141.002C141.257 16.6695 141.699 16.152 142.329 15.777C142.959 15.402 143.687 15.2145 144.512 15.2145C145.472 15.2145 146.274 15.4395 146.919 15.8895C147.564 16.3395 147.999 16.947 148.224 17.712H148.382C148.637 16.917 149.102 16.302 149.777 15.867C150.452 15.432 151.247 15.2145 152.162 15.2145C153.422 15.2145 154.419 15.5895 155.154 16.3395C155.904 17.0745 156.279 18.2445 156.279 19.8495V27.4995H152.814V20.4795C152.814 19.5795 152.634 18.9495 152.274 18.5895C151.914 18.2145 151.419 18.027 150.789 18.027C150.054 18.027 149.492 18.2745 149.102 18.7695C148.727 19.2495 148.539 19.902 148.539 20.727V27.4995H145.074V20.4795C145.074 19.5795 144.894 18.9495 144.534 18.5895C144.189 18.2145 143.687 18.027 143.027 18.027C142.292 18.027 141.737 18.2745 141.362 18.7695C140.987 19.2495 140.799 19.902 140.799 20.727V27.4995H137.334Z" fill="#0F0F0F"/>
<path d="M164.054 27.7245C162.719 27.7245 161.602 27.4695 160.702 26.9595C159.817 26.4345 159.157 25.707 158.722 24.777C158.287 23.832 158.069 22.737 158.069 21.492V21.2895C158.069 19.9845 158.309 18.882 158.789 17.982C159.269 17.067 159.937 16.377 160.792 15.912C161.662 15.432 162.659 15.192 163.784 15.192C165.014 15.192 166.057 15.4245 166.912 15.8895C167.782 16.3545 168.442 17.007 168.892 17.847C169.342 18.687 169.567 19.6695 169.567 20.7945V22.3245H161.579V22.9545C161.579 23.5995 161.797 24.117 162.232 24.507C162.682 24.897 163.252 25.092 163.942 25.092C164.557 25.092 165.059 24.957 165.449 24.687C165.854 24.417 166.094 24.057 166.169 23.607H169.432C169.387 24.432 169.132 25.152 168.667 25.767C168.202 26.382 167.572 26.862 166.777 27.207C165.982 27.552 165.074 27.7245 164.054 27.7245ZM161.579 20.0745V20.187H166.169V20.0745C166.169 19.2645 165.959 18.6795 165.539 18.3195C165.119 17.9445 164.572 17.757 163.897 17.757C163.177 17.757 162.607 17.9595 162.187 18.3645C161.782 18.7545 161.579 19.3245 161.579 20.0745Z" fill="#0F0F0F"/>
</svg>
